#!OML:ASF I:\Actors\actors\Patient Classification 2\Patient 1\Session 1\actor1.ASF
:FULLY-SPECIFIED
:DEGREES
447
root -1.26119 17.8298 6.3013 8.78793 -59.8154 -13.4808
lowerback 7.49786 -8.24112 6.24557
upperback -3.75614 -10.0483 6.67187
thorax -8.02981 -5.10498 5.11598
lowerneck -16.9929 13.8757 17.9187
upperneck 15.9135 17.03 -11.723
head 10.4532 7.88921 -4.25156
rclavicle 5.76476e-014 -9.06458e-014
rhumerus -17.0753 0.606574 8.63185
rradius 148.029
rwrist -57.5747
rhand 4.918 -41.7076
rfingers 7.12502
rthumb 30.2918 -69.2416
lclavicle 5.76476e-014 -9.06458e-014
lhumerus -14.5177 64.9265 33.5741
lradius 38.9913
lwrist 26.1426
lhand -11.6195 -27.5663
lfingers 7.12502
lthumb 14.4236 1.91253
rfemur 12.048 15.1493 22.966
rtibia -20.5345
rfoot 20.9479 5.07453
rtoes 27.2972
lfemur 24.9616 13.2235 -13.2441
ltibia -5.34719
lfoot -28.8875 32.2787
ltoes 11.1191
448
root -1.26159 17.8294 6.31443 8.75234 -59.8008 -13.4381
lowerback 7.49044 -8.28652 6.20956
upperback -3.77311 -10.1114 6.74202
thorax -8.02294 -5.1338 5.21869
lowerneck -16.9267 13.9085 17.7069
upperneck 16.0374 17.1032 -11.4949
head 10.453 7.93554 -4.12889
rclavicle 2.48481e-014 -3.65764e-014
rhumerus -16.2001 -5.28984 9.05555
rradius 144.847
rwrist -54.6908
rhand 6.04764 -38.1468
rfingers 7.12502
rthumb 31.3687 -65.4773
lclavicle 2.48481e-014 -3.65764e-014
lhumerus -14.872 65.1429 33.233
lradius 38.9685
lwrist 26.1667
lhand -11.6611 -27.557
lfingers 7.12502
lthumb 14.3835 1.92463
rfemur 12.0691 14.787 22.8944
rtibia -20.5583
rfoot 21.2465 5.166
rtoes 27.4413
lfemur 24.8797 13.2379 -13.2899
ltibia -5.11754
lfoot -29.0915 32.1061
ltoes 11.2702
449
root -1.26187 17.8311 6.32805 8.99336 -59.8072 -13.6649
lowerback 7.44553 -8.29633 6.31819
upperback -3.75864 -10.1174 6.80573
thorax -7.9893 -5.14231 5.22112
lowerneck -16.8631 13.9242 17.723
upperneck 16.0171 17.1356 -11.5158
head 10.4432 7.95206 -4.13512
rclavicle 1.03567e-013 -3.49861e-014
rhumerus -15.474 -12.9261 9.19681
rradius 141.614
rwrist -57.1088
rhand 9.92104 -38.8793
rfingers 7.12502
rthumb 35.0515 -65.4234
lclavicle 1.03567e-013 -3.49861e-014
lhumerus -14.8744 65.3119 33.1641
lradius 39.0067
lwrist 26.286
lhand -11.7064 -27.5029
lfingers 7.12502
lthumb 14.3399 1.98182
rfemur 12.0359 14.5187 22.959
rtibia -20.5663
rfoot 21.5061 5.22363
rtoes 27.5213
lfemur 24.803 13.2902 -13.1961
ltibia -4.98469
lfoot -29.1928 32.012
ltoes 11.5311
450
root -1.26252 17.8318 6.33966 9.29808 -59.8519 -13.9643
lowerback 7.39844 -8.24733 6.45399
upperback -3.69857 -10.0458 6.8377
thorax -7.91758 -5.11456 5.15772
lowerneck -16.9243 13.9287 17.7962
upperneck 15.9375 17.1274 -11.6176
head 10.4419 7.93995 -4.18013
rclavicle 5.22804e-014 1.90833e-014
rhumerus -15.2039 -19.1697 8.98591
rradius 139.016
rwrist -57.2165
rhand 8.91648 -40.952
rfingers 7.12502
rthumb 34.098 -67.714
lclavicle 5.22804e-014 1.90833e-014
lhumerus -14.3697 65.4505 33.5866
lradius 39.0715
lwrist 26.2912
lhand -11.7178 -27.4078
lfingers 7.12502
lthumb 14.3289 2.07778
rfemur 11.9911 14.5078 23.0788
rtibia -20.5523
rfoot 21.5643 5.14546
rtoes 27.6948
lfemur 24.8012 13.382 -13.0619
ltibia -5.00148
lfoot -29.1475 32.0153
ltoes 11.684
451
root -1.26225 17.8313 6.34957 9.46894 -59.8699 -14.1177
lowerback 7.43066 -8.1718 6.53218
upperback -3.66942 -9.93399 6.84656
thorax -7.91973 -5.06316 5.1121
lowerneck -17.0807 13.9212 17.7541
upperneck 15.9381 17.0988 -11.6163
head 10.4612 7.91764 -4.17176
rclavicle 7.8023e-014 -7.95139e-015
rhumerus -15.3713 -23.4543 9.11843
rradius 136.833
rwrist -53.7884
rhand 5.80119 -40.0363
rfingers 7.12502
rthumb 31.1339 -67.4122
lclavicle 7.8023e-014 -7.95139e-015
lhumerus -13.651 65.3734 34.2393
lradius 39.0304
lwrist 26.1856
lhand -11.6709 -27.3866
lfingers 7.12502
lthumb 14.3741 2.09574
rfemur 11.9516 14.5719 23.1408
rtibia -20.518
rfoot 21.4915 5.13027
rtoes 27.6716
lfemur 24.8867 13.4394 -13.004
ltibia -5.19962
lfoot -29.055 32.0705
ltoes 11.7565
452
root -1.26201 17.8313 6.35754 9.47817 -59.8232 -14.0952
lowerback 7.51777 -8.09667 6.57672
upperback -3.68979 -9.81715 6.81389
thorax -8.00874 -5.00673 5.05578
lowerneck -17.1519 13.8991 17.6595
upperneck 15.9075 17.0699 -11.5898
head 10.4466 7.89864 -4.1518
rclavicle -2.3059e-014 -9.54166e-015
rhumerus -15.8146 -26.1422 9.59106
rradius 135.08
rwrist -47.8739
rhand 3.12035 -37.5763
rfingers 7.12502
rthumb 28.5756 -65.4123
lclavicle -2.3059e-014 -9.54166e-015
lhumerus -12.9625 64.9823 34.8569
lradius 38.9502
lwrist 26.1603
lhand -11.5921 -27.3874
lfingers 7.12502
lthumb 14.45 2.08952
rfemur 11.9257 14.6336 23.1242
rtibia -20.4781
rfoot 21.3247 5.13545
rtoes 27.5672
lfemur 24.9995 13.4243 -13.0356
ltibia -5.48865
lfoot -28.8181 32.215
ltoes 11.4659
453
root -1.26415 17.8322 6.36332 9.45396 -59.7399 -14.0398
lowerback 7.55995 -8.05341 6.62178
upperback -3.71522 -9.74782 6.77598
thorax -8.07709 -4.97424 4.99329
lowerneck -17.0439 13.8937 17.6103
upperneck 15.781 17.1036 -11.6805
head 10.3923 7.90737 -4.17611
rclavicle -1.89839e-014 -1.59028e-015
rhumerus -16.2707 -28.1505 10.1915
rradius 133.929
rwrist -43.1832
rhand 1.72346 -35.4682
rfingers 7.12502
rthumb 27.2401 -63.5211
lclavicle -1.89839e-014 -1.59028e-015
lhumerus -12.5304 64.6352 35.2325
lradius 38.9476
lwrist 26.2069
lhand -11.5065 -27.3563
lfingers 7.12502
lthumb 14.5325 2.11473
rfemur 11.9111 14.6568 23.1028
rtibia -20.4512
rfoot 21.1912 5.11251
rtoes 27.4027
lfemur 25.0663 13.3661 -13.0693
ltibia -5.70932
lfoot -28.5425 32.3605
ltoes 10.9798
454
root -1.26763 17.8336 6.36745 9.55368 -59.611 -14.1131
lowerback 7.5243 -8.06349 6.72549
upperback -3.72523 -9.75319 6.76638
thorax -8.08744 -4.98206 4.92621
lowerneck -16.837 13.9312 17.6361
upperneck 15.6625 17.2191 -11.8638
head 10.3535 7.95268 -4.23157
rclavicle -2.42517e-014 1.43125e-014
rhumerus -16.6131 -29.5108 10.756
rradius 133.356
rwrist -40.4039
rhand 1.34722 -34.3148
rfingers 7.12502
rthumb 26.8801 -62.4237
lclavicle -2.42517e-014 1.43125e-014
lhumerus -12.348 64.6109 35.3706
lradius 39.0257
lwrist 26.1692
lhand -11.5567 -27.3262
lfingers 7.12502
lthumb 14.4841 2.14823
rfemur 11.8827 14.6986 23.1612
rtibia -20.4254
rfoot 21.0468 5.11175
rtoes 27.118
lfemur 25.0782 13.2665 -13.0166
ltibia -5.85139
lfoot -28.4085 32.4229
ltoes 10.7583
455
root -1.27057 17.8352 6.37158 9.6221 -59.4742 -14.1203
lowerback 7.42497 -8.10149 6.79606
upperback -3.70979 -9.80931 6.7354
thorax -8.03032 -5.01415 4.84647
lowerneck -16.7049 14.0083 17.79
upperneck 15.6255 17.3599 -12.0789
head 10.377 8.00988 -4.30643
rclavicle 8.06072e-014 -2.8625e-014
rhumerus -16.9282 -30.3363 11.1911
rradius 133.16
rwrist -38.9816
rhand 0.586815 -33.758
rfingers 7.12502
rthumb 26.1523 -61.9768
lclavicle 8.06072e-014 -2.8625e-014
lhumerus -12.1978 64.7652 35.3696
lradius 39.0861
lwrist 26.1463
lhand -11.6182 -27.2597
lfingers 7.12502
lthumb 14.4249 2.21903
rfemur 11.8211 14.7461 23.173
rtibia -20.3937
rfoot 20.8729 5.09038
rtoes 27.0573
lfemur 25.0446 13.161 -13.0104
ltibia -5.94926
lfoot -28.3594 32.4365
ltoes 10.7518
456
root -1.27404 17.8365 6.37692 9.69415 -59.3983 -14.1187
lowerback 7.35894 -8.14814 6.79385
upperback -3.718 -9.87902 6.74006
thorax -7.99873 -5.04888 4.8526
lowerneck -16.5842 14.0709 17.8975
upperneck 15.6132 17.4695 -12.1954
head 10.3917 8.0597 -4.34578
rclavicle 6.80837e-014 -1.59028e-015
rhumerus -17.0803 -30.6639 11.3944
rradius 133.118
rwrist -37.6433
rhand -0.879544 -33.5472
rfingers 7.12502
rthumb 24.7477 -61.9663
lclavicle 6.80837e-014 -1.59028e-015
lhumerus -12.4218 64.8226 35.0115
lradius 39.1591
lwrist 26.2871
lhand -11.6285 -27.1076
lfingers 7.12502
lthumb 14.415 2.37181
rfemur 11.7434 14.7448 23.1662
rtibia -20.3691
rfoot 20.7932 5.04527
rtoes 27.1058
lfemur 24.9803 13.1163 -13.0206
ltibia -5.96872
lfoot -28.3569 32.4289
ltoes 10.661
457
root -1.27779 17.8368 6.38264 9.80029 -59.4009 -14.1896
lowerback 7.36662 -8.17917 6.74258
upperback -3.75254 -9.92207 6.79623
thorax -8.02069 -5.06716 4.95065
lowerneck -16.5053 14.1006 17.8684
upperneck 15.7071 17.5297 -12.1347
head 10.4115 8.09441 -4.31145
rclavicle -1.14699e-013 2.70347e-014
rhumerus -17.0523 -30.704 11.5006
rradius 133.087
rwrist -36.3613
rhand -2.10146 -33.3052
rfingers 7.12502
rthumb 23.5761 -61.88
lclavicle -1.14699e-013 2.70347e-014
lhumerus -12.9514 64.9104 34.526
lradius 39.3217
lwrist 26.2874
lhand -11.6662 -26.9036
lfingers 7.12502
lthumb 14.3787 2.57838
rfemur 11.7051 14.7189 23.1935
rtibia -20.3653
rfoot 20.8156 5.07468
rtoes 26.9183
lfemur 24.9177 13.1465 -12.9887
ltibia -5.88876
lfoot -28.4378 32.3686
ltoes 10.6319
458
root -1.28082 17.8367 6.38768 9.82567 -59.4381 -14.2157
lowerback 7.38893 -8.17136 6.64353
upperback -3.74792 -9.91972 6.82815
thorax -8.00498 -5.06114 5.03758
lowerneck -16.5478 14.1005 17.8433
upperneck 15.854 17.5202 -12.0343
head 10.4568 8.0958 -4.27174
rclavicle 9.81996e-014 1.59028e-014
rhumerus -17.0959 -30.7127 11.6612
rradius 133.113
rwrist -35.7026
rhand -2.8867 -32.8847
rfingers 7.12502
rthumb 22.8227 -61.5544
lclavicle 9.81996e-014 1.59028e-014
lhumerus -13.0678 65.113 34.4099
lradius 39.3738
lwrist 26.1099
lhand -11.705 -26.823
lfingers 7.12502
lthumb 14.3413 2.66166
rfemur 11.7244 14.6505 23.197
rtibia -20.3784
rfoot 20.9027 5.18429
rtoes 26.6759
lfemur 24.8768 13.2033 -12.9784
ltibia -5.75011
lfoot -28.5419 32.2873
ltoes 10.7341
459
root -1.28376 17.8358 6.39252 9.85591 -59.4783 -14.2746
lowerback 7.40527 -8.14823 6.56888
upperback -3.71512 -9.89713 6.84583
thorax -7.96256 -5.04668 5.08899
lowerneck -16.6092 14.0717 17.8281
upperneck 15.9525 17.4646 -11.9611
head 10.4849 8.0737 -4.25189
rclavicle 4.19436e-014 -1.01778e-013
rhumerus -17.1508 -30.6974 11.771
rradius 133.258
rwrist -35.407
rhand -3.39734 -32.5383
rfingers 7.12502
rthumb 22.3326 -61.2676
lclavicle 4.19436e-014 -1.01778e-013
lhumerus -12.8941 65.2833 34.4882
lradius 39.3007
lwrist 26.0226
lhand -11.7477 -26.9288
lfingers 7.12502
lthumb 14.3002 2.55875
rfemur 11.7697 14.5668 23.2233
rtibia -20.3912
rfoot 21.0136 5.23874
rtoes 26.6901
lfemur 24.8731 13.2604 -12.9409
ltibia -5.6191
lfoot -28.6467 32.2053
ltoes 10.8044
460
root -1.28643 17.8352 6.39771 9.90972 -59.5332 -14.3264
lowerback 7.38192 -8.14243 6.50839
upperback -3.69719 -9.89968 6.86849
thorax -7.91459 -5.04565 5.13727
lowerneck -16.6218 14.0605 17.7814
upperneck 16.0332 17.4422 -11.859
head 10.497 8.07013 -4.21303
rclavicle 3.44891e-014 -1.59028e-014
rhumerus -17.0028 -30.6384 11.6864
rradius 133.445
rwrist -35.0266
rhand -3.76714 -32.4077
rfingers 7.12502
rthumb 21.9776 -61.1791
lclavicle 3.44891e-014 -1.59028e-014
lhumerus -12.9485 65.401 34.3665
lradius 39.2596
lwrist 26.0295
lhand -11.7799 -27.0845
lfingers 7.12502
lthumb 14.2691 2.40522
rfemur 11.7762 14.5152 23.234
rtibia -20.397
rfoot 21.1024 5.25658
rtoes 26.7424
lfemur 24.8534 13.3344 -12.915
ltibia -5.51852
lfoot -28.7428 32.1312
ltoes 10.8627
